PathFileType	4	(X/Y/Z)	/Users/niels/Desktop/University/Third Semester/Perception and Action/Exam/Gymnastics Motion Tracking/Code for Gym Tracking/Analyzed Data/Webcam_Backflip/id6_5_pure_Sports2D/id6_5_pure_Sports2D_px_person00.trc
DataRate	CameraRate	NumFrames	NumMarkers	Units	OrigDataRate	OrigDataStartFrame	OrigNumFrames
29.81132075471698	29.81132075471698	7	22	m	29.81132075471698	139	159
Frame#	Time	Hip			RHip			RKnee			RAnkle			RBigToe			RSmallToe			RHeel			LHip			LKnee			LAnkle			LBigToe			LSmallToe			LHeel			Neck			Head			Nose			RShoulder			RElbow			RWrist			LShoulder			LElbow			LWrist		
		X1	Y1	Z1	X2	Y2	Z2	X3	Y3	Z3	X4	Y4	Z4	X5	Y5	Z5	X6	Y6	Z6	X7	Y7	Z7	X8	Y8	Z8	X9	Y9	Z9	X10	Y10	Z10	X11	Y11	Z11	X12	Y12	Z12	X13	Y13	Z13	X14	Y14	Z14	X15	Y15	Z15	X16	Y16	Z16	X17	Y17	Z17	X18	Y18	Z18	X19	Y19	Z19	X20	Y20	Z20	X21	Y21	Z21	X22	Y22	Z22
139	4.662658227848101	1.0157596942129996	-0.5665188936767789	0.0	1.0014821507053766	-0.5685707496271829	0.0	1.027890493266284	-0.6654429149027888	0.0	0.993741580589116	-0.7568166900710077	0.0	1.0213830443706131	-0.7861128270332746	0.0	1.0100616283125208	-0.7866073948031602	0.0	0.9832337315826902	-0.7723403106084876	0.0	1.0266201017401397	-0.5657274571700881	0.0	1.029864672471264	-0.6653347877898754	0.0	0.9989225172761028	-0.75394900544722	0.0	1.0328538843218495	-0.7823611826838418	0.0	1.0287603423216058	-0.7779186672959878	0.0	0.9863104571547534	-0.768431723632256	0.0	1.0263695776767487	-0.4299499001445204	0.0	1.0379718937179017	-0.3651291567908618	0.0	1.0397246221451393	-0.39994475230320453	0.0	0.9998809025496684	-0.44529675687414266	0.0	0.9791706269108714	-0.5112606610427919	0.0	0.9825678496059382	-0.5775549298924596	0.0	1.0439905366111062	-0.4494147426264558	0.0	1.0392218642723867	-0.513804711431999	0.0	1.052703629620004	-0.5741577694467268	0.0
140	4.69620253164557	1.0148582356913416	-0.5538719859470925	0.0	1.0004410386894909	-0.5565832178896911	0.0	1.0262838091568018	-0.6526256038946662	0.0	0.9944429319042659	-0.7463053469485506	0.0	1.0230631769269354	-0.7771018484825016	0.0	1.0115744198738665	-0.7779223263818832	0.0	0.9839273274738894	-0.7625984971407355	0.0	1.0262009219562211	-0.5536493333188477	0.0	1.0299683775775783	-0.6526211593220735	0.0	1.0001474328261237	-0.7424916484475628	0.0	1.0327469041248285	-0.7727991997278995	0.0	1.0294730197104696	-0.7684506907811666	0.0	0.9885812979445927	-0.7573977291028553	0.0	1.026540147385283	-0.4171592610878622	0.0	1.0387678118907275	-0.351760442426659	0.0	1.0399502676673162	-0.3873136642607685	0.0	1.000050675861849	-0.4322526974198301	0.0	0.9783515047932116	-0.4971463787548704	0.0	0.9851607391354108	-0.5629163210026656	0.0	1.0439276980331749	-0.4365845503022716	0.0	1.0398973261491662	-0.49959767697856783	0.0	1.0565807750278329	-0.5581487786669664	0.0
141	4.729746835443038	1.0139629137737454	-0.5445354854941447	0.0	0.9996364952216824	-0.5475016293451477	0.0	1.0243522314832374	-0.6430395151865893	0.0	0.9948354853379472	-0.7390933398888846	0.0	1.0239620688197009	-0.7713077863179157	0.0	1.0123798092126972	-0.7723451583022186	0.0	0.9843738943619043	-0.755894656895865	0.0	1.0257649731088978	-0.5446072191662372	0.0	1.029890889285789	-0.643138452510115	0.0	1.0012130804219639	-0.7345174300500855	0.0	1.0319317308979783	-0.7665721250187554	0.0	1.0295305873401663	-0.7623135664954042	0.0	0.9906631773023052	-0.7496070980656879	0.0	1.0266239561895307	-0.4072374675914459	0.0	1.039455126162604	-0.3413466386032837	0.0	1.0401442121043911	-0.377604265375073	0.0	1.0001557827972918	-0.4220232927068484	0.0	0.9776284836658146	-0.4860190548971947	0.0	0.9883167198824219	-0.5508239095328503	0.0	1.0436014751234224	-0.42666837124880075	0.0	1.040833758168221	-0.48814498375998994	0.0	1.0611481252847828	-0.5449717601167184	0.0
142	4.763291139240506	1.0132292929792892	-0.5389687227915411	0.0	0.9992900601334075	-0.5417091878259503	0.0	1.0223320942174476	-0.6371051544843944	0.0	0.9949068063937222	-0.7352306220167336	0.0	1.0240374916963702	-0.7688021516675103	0.0	1.0125126371557018	-0.7698711364621442	0.0	0.9844910193784776	-0.7522240154029801	0.0	1.0253828201077062	-0.5390030150246901	0.0	1.029489889572579	-0.6372864776716552	0.0	1.001942865193894	-0.7303149518744176	0.0	1.0303527925476221	-0.7638290441362372	0.0	1.0288190052050745	-0.7596594510787452	0.0	0.9921409466956189	-0.745364571161362	0.0	1.026503314600116	-0.40074428192058664	0.0	1.0399314775046586	-0.33444664953988795	0.0	1.0402246201734557	-0.371370796606409	0.0	1.0001117516566667	-0.41509677477207	0.0	0.9771792376413082	-0.47851461298808345	0.0	0.9918731144916895	-0.5419117110348142	0.0	1.0430054920240683	-0.4201488148845418	0.0	1.0419255724713443	-0.48001859814291475	0.0	1.0659867983251148	-0.5351228083470968	0.0
143	4.796835443037974	1.012836214829612	-0.537224070548045	0.0	0.999474268445478	-0.5393273514952408	0.0	1.020337025939765	-0.6349173830640065	0.0	0.9946659208534987	-0.7345809129525339	0.0	1.0234026810533383	-0.7693574234602467	0.0	1.0120381023780471	-0.7702593214934375	0.0	0.9842616212143835	-0.7515168131637727	0.0	1.0252012350602653	-0.5369251414824724	0.0	1.028740475311422	-0.6351238031667522	0.0	1.0022520951317169	-0.7297918475563897	0.0	1.0282548600496317	-0.7642901390730666	0.0	1.0275220643260317	-0.7602293922853857	0.0	0.9928824749249171	-0.7446573984725197	0.0	1.0260560250913842	-0.3979217147664083	0.0	1.0401345025756419	-0.3312587298187236	0.0	1.0400952989462198	-0.3688631917838589	0.0	0.9997880304939487	-0.4117203865922344	0.0	0.9771576289524339	-0.4749700396105166	0.0	0.9956511936679174	-0.5365936418331955	0.0	1.0421783848990651	-0.4171889410917727	0.0	1.0430767756808523	-0.47553925482676007	0.0	1.0707229847304638	-0.5288434230074326	0.0
144	4.830379746835443	1.012858062017275	-0.5391240781326799	0.0	1.000069405380701	-0.5403553592122877	0.0	1.0184194155574913	-0.6363724267145778	0.0	0.9941287112223725	-0.7369482653791126	0.0	1.0223066940973013	-0.7726319701566152	0.0	1.0110358181123658	-0.7732150256979063	0.0	0.9837092210664448	-0.753708459481169	0.0	1.0253392260624885	-0.5383134664294046	0.0	1.0277638163594123	-0.6364990465774024	0.0	1.0021598219778443	-0.7326033980705694	0.0	1.02618179917645	-0.7674536062224252	0.0	1.026091354116112	-0.7635351176560836	0.0	0.9929792778725837	-0.7472640259063937	0.0	1.0252299426012321	-0.39873690384524896	0.0	1.039998634397301	-0.3317106599934726	0.0	1.0396769164778348	-0.3700459974868917	0.0	0.9990823976282981	-0.4119691185925352	0.0	0.9776361843360484	-0.4754725306436584	0.0	0.9994947813412379	-0.5350884363101429	0.0	1.0411794018775402	-0.41772221373494195	0.0	1.0441476766115854	-0.47484788809387823	0.0	1.075038278099907	-0.5262828798223	0.0
145	4.863924050632911	1.0132281880433072	-0.5443097075486275	0.0	1.0008407216437267	-0.5446639884271999	0.0	1.016657807566234	-0.6411966376166096	0.0	0.9932810478939025	-0.7420761659032183	0.0	1.0209038906908987	-0.7782433992633226	0.0	1.009449325861098	-0.7784277595862169	0.0	0.9828298249941322	-0.7586036571693361	0.0	1.025825591339366	-0.5429786922539015	0.0	1.0267602657937334	-0.6411262438833579	0.0	1.0017101863606155	-0.7382443788923652	0.0	1.0246775073166488	-0.7727551427339425	0.0	1.0249514475790027	-0.7689928026976713	0.0	0.9925423421819385	-0.752762530874711	0.0	1.0240888935260692	-0.4029168219898121	0.0	1.0394357507529528	-0.3355398560325926	0.0	1.0389635943679711	-0.3746180171026011	0.0	0.997993311279224	-0.4157319394495505	0.0	0.9785973909015059	-0.4798470500901591	0.0	1.00324909823071	-0.5374330775196774	0.0	1.0400890754257557	-0.42152358764273506	0.0	1.0449484730931764	-0.4779159343222657	0.0	1.0786969025077067	-0.5275390918609012	0.0
